# xmcd
#
# Track frame offsets:
#	150
#	16897
#	30075
#	42137
#	55235
#	68637
#	81060
#	94525
#	114627
#	127977
#	148597
#	161030
#	174925
#	187687
#	204460
#	221050
#	234460
#	252020
#
# Disc length: 3586 seconds
#
# Revision: 0
# Processed by: cddbd v1.5.1PL0 Copyright (c) Steve Scherf et al.
# Submitted via: EasyCDDAExtractor 7.5.2.1
#
DISCID=de0e0012
DTITLE=Donovan, Barb - 18 Tracks
DYEAR=1999
DGENRE=Country
TTITLE0=Angelina
TTITLE1=Lucky this time
TTITLE2=I'll be there in the morning
TTITLE3=When Hell freezes over
TTITLE4=Only an angel
TTITLE5=Factory town
TTITLE6=Can't move my heart
TTITLE7=Drive me crazy
TTITLE8=If you only knew
TTITLE9=Leave a light on
TTITLE10=Dressed to kill
TTITLE11=Wash my sins away
TTITLE12=Thin line
TTITLE13=Restless soul
TTITLE14=Love you blind
TTITLE15=Sometimes when the morning comes
TTITLE16=Somewhere without you
TTITLE17=Broken heart
EXTD=
EXTT0=
EXTT1=
EXTT2=
EXTT3=
EXTT4=
EXTT5=
EXTT6=
EXTT7=
EXTT8=
EXTT9=
EXTT10=
EXTT11=
EXTT12=
EXTT13=
EXTT14=
EXTT15=
EXTT16=
EXTT17=
PLAYORDER=
